<?xml version="1.0" encoding="UTF-8"?>
<svg id="Layer_1" data-name="Layer 1" xmlns="http://www.w3.org/2000/svg" viewBox="0 0 1632.76 311.81">
  <defs>
    <style>
      .cls-1 {
        fill: #c49634;
      }

      .cls-2 {
        fill: #fff;
      }
    </style>
  </defs>
  <g>
    <path class="cls-2" d="M170.42,96.15l-33.64,82.62c-6.27,2.4-11.54,5.7-17.82,8.59l42.79-103.58,17.53-42.25c1.53-.35,2.84-.29,4.58-.12l61.96,153.2c-13.76-10.35-27.75-18-43.58-21.48l-31.8-76.97Z"/>
    <path class="cls-1" d="M330.02,85.78c-21.6-2.78-42.14,4.52-57.78,19.32-19.01,18-28.03,42.59-28.24,69.1l-7.93-19.25-11.53-29.15c17.32-28.81,44.52-47.62,77.38-51.48l6.87-.48c10.86-.52,13.56-.07,22.77.85l10.83,1.4c17.11,3.02,33.08,9.16,47.98,17.95l.37,11.8.23,29.94c-.81.73-2.72.62-3.57-.01-6.46-26.91-30.14-46.49-57.37-50Z"/>
    <path class="cls-1" d="M290.68,269.52c-.51-.95-1.95-.92-3.14-1.2-23.19-5.45-38.4-18.67-53.88-35.71l-12.37-13.62-5.4-5.06c-12.96-12.15-29.01-19.19-47.19-20.38-14.23-.94-28.17,2.46-41.29,7.2l-7.1,2.57c-13.73,5.71-26.26,13.4-38.83,21.32-1.15.72-.56.33-2.6,1.8l-15.55,8.96,6.72-5.96,16.94-13.52c13.26-10.59,27.27-19.64,42.57-27.04,19.59-9.47,38.36-14.02,60.14-11.83,28.49,2.86,52.35,18.07,69.7,40.36,7.01,9.01,14.25,17.28,23.39,24.19,23.66,17.86,51.82,22.04,77.85,5.37-9.44,15.73-26.54,21.97-44.2,23.55l-12.32.06c-.85,0-1.69-.03-2.54-.1l-10.89-.92Z"/>
    <path class="cls-1" d="M398.79,241.31c0,4.41-2.24,8.53-5.97,10.9-13.68,8.68-28.9,14.21-44.88,17.05-2.37.41-4.53.74-7.16.24,9.09-3.76,16.99-9.3,22.69-17.06,1.89-2.57,2.92-5.67,2.91-8.85l-.08-46.36c0-2.35-.68-4.83-1.29-6.98-3.03-10.75-17.85-11.31-28.34-11.66-.58-1.58-.65-3.25.06-4.7l80.84.06c1.26,0,1.03,0,3.78.11,1.31.96,1.23,3.24.55,4.8-8.22-.28-19.79,1.65-22.34,9.55l-.85,6.71.06,46.2Z"/>
    <path class="cls-2" d="M127.39,200.74l-17.88,45.96c-2.04,5.13-.75,10.98,3.26,14.27,3.58,2.94,7.93,3.7,12.21,4.18l-.05,4.35-53.83.03c-.23-1.44-.16-2.67.06-4.35,13.28-2.05,18.84-11.31,23.73-23.15l12.81-31.06-13.18,6.4-11.62,6.63c-1.41.8-1.25.79-4.04,2.42,1.38-1.23,1.36-1.25,2.51-1.98,12.57-7.92,25.18-15.43,38.91-21.14l7.1-2.57Z"/>
    <path class="cls-2" d="M290.68,269.52l-34.34-.15c-10.98-.05-20.45-7.04-24.7-17.14l-15.76-38.31,5.4,5.06,12.37,13.62c15.48,17.04,30.69,30.26,53.88,35.71,1.19.28,2.62.26,3.14,1.2Z"/>
  </g>
  <g>
    <g>
      <rect class="cls-2" x="509.18" y="251.49" width="94.64" height="4.79"/>
      <rect class="cls-2" x="1436.85" y="251.49" width="94.64" height="4.79"/>
      <g>
        <path class="cls-2" d="M658.79,242.61c-.25-.88-.61-1.67-1.07-2.35s-1.02-1.27-1.68-1.75c-.66-.48-1.41-.84-2.25-1.1-.84-.25-1.77-.38-2.79-.38-1.9,0-3.57.47-5.01,1.42-1.44.95-2.55,2.32-3.35,4.12-.8,1.8-1.2,4-1.2,6.59s.39,4.8,1.18,6.62,1.9,3.2,3.34,4.15c1.44.95,3.14,1.43,5.11,1.43,1.78,0,3.31-.32,4.57-.95,1.27-.64,2.24-1.54,2.91-2.7.67-1.16,1.01-2.54,1.01-4.13l1.6.24h-9.6v-5.93h15.58v4.69c0,3.27-.69,6.08-2.07,8.43-1.38,2.35-3.28,4.15-5.71,5.42-2.42,1.27-5.2,1.9-8.33,1.9-3.49,0-6.56-.77-9.2-2.32-2.64-1.55-4.7-3.74-6.17-6.6-1.47-2.85-2.21-6.24-2.21-10.17,0-3.02.44-5.71,1.32-8.08.88-2.37,2.11-4.38,3.7-6.03,1.59-1.65,3.44-2.9,5.54-3.76,2.11-.86,4.39-1.29,6.85-1.29,2.11,0,4.07.31,5.89.92,1.82.61,3.43,1.47,4.84,2.59,1.41,1.12,2.57,2.44,3.46,3.97.9,1.53,1.47,3.22,1.73,5.06h-8Z"/>
        <path class="cls-2" d="M689.7,267.81h-8.43l12.85-37.23h10.14l12.83,37.23h-8.43l-9.33-28.72h-.29l-9.34,28.72ZM689.17,253.18h19.92v6.14h-19.92v-6.14Z"/>
        <path class="cls-2" d="M752,241.29c-.15-1.47-.77-2.61-1.87-3.42-1.1-.81-2.6-1.22-4.49-1.22-1.28,0-2.37.18-3.25.54-.88.36-1.56.85-2.03,1.48-.47.63-.7,1.34-.7,2.15-.02.67.12,1.25.43,1.74.31.5.74.92,1.28,1.28.55.36,1.18.67,1.89.93.71.26,1.48.48,2.29.66l3.34.8c1.62.36,3.11.85,4.47,1.45,1.36.61,2.53,1.35,3.53,2.24.99.89,1.77,1.93,2.32,3.13.55,1.2.83,2.58.85,4.13-.01,2.28-.59,4.25-1.74,5.92-1.15,1.67-2.79,2.96-4.94,3.87-2.15.91-4.74,1.37-7.77,1.37s-5.62-.46-7.84-1.38c-2.22-.92-3.96-2.29-5.2-4.1-1.24-1.81-1.89-4.06-1.95-6.74h7.62c.08,1.25.45,2.29,1.08,3.12s1.49,1.45,2.56,1.87c1.07.42,2.29.63,3.64.63s2.49-.19,3.48-.58c.99-.39,1.75-.93,2.3-1.62.55-.69.82-1.48.82-2.38,0-.84-.25-1.54-.74-2.11-.49-.57-1.21-1.05-2.15-1.45-.94-.4-2.09-.76-3.44-1.09l-4.05-1.02c-3.14-.76-5.62-1.96-7.43-3.58-1.82-1.62-2.72-3.81-2.71-6.56-.01-2.25.59-4.22,1.81-5.91,1.22-1.68,2.89-3,5.03-3.95,2.13-.94,4.56-1.42,7.27-1.42s5.18.47,7.24,1.42c2.07.95,3.68,2.26,4.83,3.95,1.15,1.68,1.74,3.64,1.78,5.85h-7.54Z"/>
        <path class="cls-2" d="M774.15,237.07v-6.49h30.58v6.49h-11.4v30.74h-7.78v-30.74h-11.4Z"/>
        <path class="cls-2" d="M820.01,267.81v-37.23h14.69c2.81,0,5.21.5,7.21,1.5,1.99,1,3.51,2.41,4.56,4.24,1.05,1.82,1.57,3.97,1.57,6.43s-.53,4.6-1.6,6.37c-1.07,1.78-2.61,3.14-4.63,4.08-2.02.95-4.46,1.42-7.32,1.42h-9.83v-6.33h8.56c1.5,0,2.75-.21,3.74-.62s1.74-1.03,2.23-1.85c.49-.82.74-1.85.74-3.07s-.25-2.28-.74-3.13c-.49-.85-1.24-1.49-2.24-1.94-1-.44-2.26-.66-3.77-.66h-5.31v30.79h-7.87ZM840.12,250.87l9.25,16.94h-8.69l-9.05-16.94h8.49Z"/>
        <path class="cls-2" d="M898.06,249.19c0,4.06-.77,7.51-2.3,10.36-1.53,2.85-3.62,5.02-6.25,6.52s-5.6,2.24-8.88,2.24-6.28-.75-8.91-2.25c-2.63-1.5-4.71-3.68-6.24-6.53-1.53-2.85-2.29-6.3-2.29-10.34s.76-7.51,2.29-10.36c1.53-2.85,3.61-5.02,6.24-6.52,2.63-1.5,5.6-2.24,8.91-2.24s6.24.75,8.88,2.24c2.64,1.5,4.72,3.67,6.25,6.52,1.53,2.85,2.3,6.3,2.3,10.36ZM890.08,249.19c0-2.63-.39-4.85-1.17-6.65-.78-1.81-1.88-3.17-3.3-4.11-1.42-.93-3.08-1.4-4.98-1.4s-3.56.47-4.98,1.4c-1.42.93-2.52,2.3-3.3,4.11-.78,1.81-1.17,4.02-1.17,6.65s.39,4.85,1.17,6.65c.78,1.81,1.88,3.17,3.3,4.11,1.42.93,3.08,1.4,4.98,1.4s3.56-.47,4.98-1.4,2.52-2.3,3.3-4.11c.78-1.81,1.17-4.02,1.17-6.65Z"/>
        <path class="cls-2" d="M945.25,230.58v37.23h-6.8l-16.2-23.43h-.27v23.43h-7.87v-37.23h6.91l16.07,23.41h.33v-23.41h7.83Z"/>
        <path class="cls-2" d="M996.19,249.19c0,4.06-.77,7.51-2.3,10.36-1.53,2.85-3.62,5.02-6.25,6.52-2.64,1.5-5.6,2.24-8.88,2.24s-6.28-.75-8.91-2.25c-2.63-1.5-4.71-3.68-6.24-6.53-1.53-2.85-2.29-6.3-2.29-10.34s.76-7.51,2.29-10.36c1.53-2.85,3.61-5.02,6.24-6.52,2.63-1.5,5.6-2.24,8.91-2.24s6.24.75,8.88,2.24c2.64,1.5,4.72,3.67,6.25,6.52,1.53,2.85,2.3,6.3,2.3,10.36ZM988.21,249.19c0-2.63-.39-4.85-1.17-6.65-.78-1.81-1.88-3.17-3.3-4.11s-3.08-1.4-4.98-1.4-3.56.47-4.98,1.4c-1.42.93-2.52,2.3-3.3,4.11s-1.17,4.02-1.17,6.65.39,4.85,1.17,6.65c.78,1.81,1.88,3.17,3.3,4.11s3.08,1.4,4.98,1.4,3.56-.47,4.98-1.4c1.42-.93,2.52-2.3,3.3-4.11.78-1.81,1.17-4.02,1.17-6.65Z"/>
        <path class="cls-2" d="M1012.24,230.58h9.71l10.25,25.01h.44l10.25-25.01h9.71v37.23h-7.64v-24.23h-.31l-9.63,24.05h-5.2l-9.63-24.14h-.31v24.32h-7.64v-37.23Z"/>
        <path class="cls-2" d="M1077.18,230.58v37.23h-7.87v-37.23h7.87Z"/>
        <path class="cls-2" d="M1093.91,267.81v-37.23h25.09v6.49h-17.22v8.87h15.92v6.49h-15.92v8.89h17.29v6.49h-25.16Z"/>
        <path class="cls-2" d="M1157.61,267.81v-37.23h14.91c2.74,0,5.02.41,6.85,1.22,1.83.81,3.21,1.94,4.13,3.37.92,1.44,1.38,3.09,1.38,4.95,0,1.45-.29,2.73-.87,3.83-.58,1.1-1.38,1.99-2.39,2.69-1.01.7-2.17,1.19-3.46,1.48v.36c1.42.06,2.75.46,3.99,1.2,1.24.74,2.25,1.77,3.03,3.1.78,1.33,1.16,2.91,1.16,4.74,0,1.98-.49,3.74-1.46,5.28-.98,1.54-2.41,2.77-4.32,3.66-1.9.9-4.25,1.34-7.04,1.34h-15.91ZM1165.48,246.16h5.84c1.08,0,2.04-.19,2.88-.57.84-.38,1.51-.92,2-1.63.49-.7.74-1.55.74-2.53,0-1.34-.48-2.43-1.43-3.25-.95-.82-2.3-1.24-4.04-1.24h-5.98v9.22ZM1165.48,261.37h6.42c2.19,0,3.79-.42,4.8-1.26,1.01-.84,1.51-1.97,1.51-3.37,0-1.03-.25-1.94-.75-2.73-.5-.79-1.2-1.41-2.12-1.85-.92-.45-2-.67-3.26-.67h-6.6v9.89Z"/>
        <path class="cls-2" d="M1201.68,267.81v-37.23h25.09v6.49h-17.22v8.87h15.92v6.49h-15.92v8.89h17.29v6.49h-25.16Z"/>
        <path class="cls-2" d="M1256.47,267.81h-13.2v-37.23h13.31c3.74,0,6.97.74,9.67,2.23,2.7,1.48,4.78,3.61,6.24,6.39,1.46,2.77,2.19,6.1,2.19,9.96s-.73,7.21-2.19,10c-1.46,2.79-3.55,4.93-6.27,6.42-2.72,1.49-5.97,2.24-9.75,2.24ZM1251.15,261.06h5c2.33,0,4.29-.41,5.88-1.25,1.59-.83,2.79-2.12,3.6-3.87.81-1.75,1.21-4.01,1.21-6.79s-.4-5-1.21-6.74c-.81-1.75-2-3.03-3.59-3.85-1.59-.82-3.55-1.24-5.87-1.24h-5.02v23.74Z"/>
        <path class="cls-2" d="M1297.16,267.81h-8.43l12.85-37.23h10.14l12.83,37.23h-8.43l-9.33-28.72h-.29l-9.34,28.72ZM1296.63,253.18h19.92v6.14h-19.92v-6.14Z"/>
        <path class="cls-2" d="M1339.26,267.81v-37.23h14.69c2.81,0,5.21.5,7.21,1.5,1.99,1,3.51,2.41,4.56,4.24,1.05,1.82,1.57,3.97,1.57,6.43s-.53,4.6-1.6,6.37c-1.07,1.78-2.61,3.14-4.63,4.08-2.02.95-4.46,1.42-7.32,1.42h-9.83v-6.33h8.56c1.5,0,2.75-.21,3.74-.62.99-.41,1.74-1.03,2.23-1.85.49-.82.74-1.85.74-3.07s-.25-2.28-.74-3.13c-.49-.85-1.24-1.49-2.24-1.94-1-.44-2.26-.66-3.77-.66h-5.31v30.79h-7.87ZM1359.37,250.87l9.25,16.94h-8.69l-9.05-16.94h8.49Z"/>
        <path class="cls-2" d="M1383.1,267.81v-37.23h24.65v6.49h-16.78v8.87h15.14v6.49h-15.14v15.38h-7.87Z"/>
      </g>
    </g>
    <g>
      <g>
        <path class="cls-1" d="M1319.57,173.76l-23.19-.22-30.79-41c-3.48,1.1-4.44,4.8-4.43,8.3l.07,21.66c.03,7.86,8.27,7.56,8.91,8.15.5.46.83,1.63.32,3.22l-34.57-.35c-1.03-.01-1.41-1.67-.93-2.42.91-1.4,9.3-.7,9.29-8.36l-.08-98.14c0-5.43-4.2-8.86-8.63-8.85-1.97-7.45,12.43,2.95,20.27-9.1,1.12-1.72,3.68-2.7,5.22-1.58l.24,84.8,28.95-26.49c1.27-1.77,2.03-3.61,1.42-5.29-1.64-4.47-8.93-1.39-6.94-6.68l31.62-.5c.5,1.46.45,2.55.03,3.88-5.87.61-11.09,2.72-15.41,6.73l-22.59,20.93,31.87,41.26c5.69,7.37,12.25,5.2,12.01,8.94-.11,1.67-1.08,1.11-2.65,1.1Z"/>
        <path class="cls-1" d="M1162.92,161.88c0,8.9,8.32,7.48,9.31,9.27.4.72.11,2.41-.82,2.4l-34.63-.13c-.53,0-.56-2.75.07-2.85,4.65.19,9.22-2.82,9.22-8.13v-54.13c0-10.38-10.87-6.72-8.82-11.68,6.09-1.24,12.39-2.56,18.42-5.29,2.25-1.02,4.22-2.04,7.1-1.61.37,4.75-.63,9.41.61,14.25,9.89-14.04,26.93-19.02,41.6-11.31,7.63,4.01,11.42,12.41,11.44,20.97l.11,47.99c.01,5.41,3.78,8.87,9.01,8.75.75.25.69,3.1-.05,3.1l-34.98.04c-.58-.76-.56-2.17-.09-3.2,5.14.32,9.24-3.22,9.22-8.46l-.23-46.25c-.03-5.49-2.46-11.48-7.35-13.93-10.74-5.38-23.37-.88-29.1,9.56l-.02,50.64Z"/>
        <path class="cls-2" d="M605.85,173.84c-.44-1.3-.46-2.36.05-3.67,4.86.51,9.35-2.96,9.35-8.38l-.11-100c0-4.88-3.62-7.98-7.87-8.23-1.09-.06-1.09-2.7-.45-2.8,8.71-1.41,16.53-4.16,25.36-7.48l.11,118.17c0,2.58.96,4.95,2.19,6.3,3.57,3.94,9.37.2,7.65,6.08h-36.28Z"/>
        <path class="cls-1" d="M956.22,165.07c9.88,1.85,13.95-7.27,16.1-1.81-6.8,10.98-21.58,15.57-33.34,9.11-6.11-3.36-8.69-10.35-8.71-17.24l-.2-57.47-13.13-.33.17-5.66c14.38-.77,20.57-11.76,24.67-25.38.39-1,3.53-1,4.79-.48l.16,24.85,23.49.07.24,6.68-23.77.17.2,55.2c.02,5.92,3.58,11.23,9.33,12.31Z"/>
        <path class="cls-1" d="M985.3,173.77c-1.93.02-3.28.58-3.59-1.02-.86-4.38,10.02-1.11,10.02-10.33v-53.79c-.02-10.32-9.49-7.39-9.22-10.88.18-2.31,9.52-1.94,19.53-6.71,2.2-1.05,4.44-1.89,6.55-.92l.18,14.2c4.89-8.16,11.03-14.48,19.83-15.21,4.77-.4,9.37,1.37,11.87,4.57,2.89,3.7,3.22,9.27.84,13.33-1.38,2.36-3.51,3.55-5.57,3.61-8.14.24-5.51-6.04-9.73-8.62-2.59-1.58-5.86-1.63-8.41-.25-7.14,3.86-9.09,11.52-9.06,19.19l.19,41.36c.04,8.43,10.33,7.67,10.61,8.29.21.46.17,1.79-.01,2.87l-34.03.31Z"/>
        <circle class="cls-1" cx="1103.26" cy="66.58" r="9.67"/>
        <circle class="cls-1" cx="1073.31" cy="66.61" r="9.61"/>
        <path class="cls-1" d="M822.85,171.79c-4.33-7.12-12.81-9.75-20.83-9.91l-30.93-.64c-3.32-.07-7.06-1.3-8.57-4.56-2.18-4.7,2.81-11.51,7.86-10.65,9.83,1.67,19.23,1.83,28.29-1.86,9.69-3.94,16.46-11.88,17.9-21.28,1.61-10.45-2.32-19.49-10.6-26.31l15.62-1.21c3.82-.3,5.13-8.65,2.03-10.96-5.09-3.79-11.74-.6-15,4.06-1.52,2.18-4.76,5.3-7.5,4.29-11.64-4.33-23.74-5.24-35.07-.59-8.35,3.43-14.3,10.05-16.71,17.11-4.56,13.39.05,27.06,14.45,34.69-9.53,5.15-17.41,13.61-13.38,22.52,1.56,3.45,4.91,5.9,9.7,8.17-10.95,4.71-18.88,12.66-16.1,23.45,3.14,12.2,21.12,15.01,34.75,15.43,12.71.39,25.19-1.98,35.84-9.5,10.7-7.55,14.9-21.31,8.24-32.24ZM767.55,103.39c2.67-5.94,8.67-8.93,14.56-8.86,6,.07,11.63,3.19,14.54,9.16,4.05,8.3,4.56,18.4,1.32,27.55-2.38,6.74-8.06,10.65-14.08,10.98-6.6.36-12.56-2.99-15.73-9.37-4.52-9.08-4.82-20.09-.61-29.46ZM812.94,192.63c-4.74,15.09-28.75,18.46-44.31,12.33-6.14-2.42-9.93-7.25-10.74-13.26-.68-5.02,2.26-15.21,8.34-15.13l27.03.37c4.8.07,9.77.84,13.86,2.78,4.85,2.3,7.58,7.31,5.82,12.91Z"/>
        <path class="cls-2" d="M598.28,170.25c-5.74-.09-11.27-3.16-13.79-9.3l-47.79-116.32-21.67.57c3.95,3.92,8.75,9.44,6.66,14.85l-37.92,97.75c-2.93,7.56-8.49,12.59-16.42,12.43-.44,1.33-.14,2.93.43,3.2.38.18,1.51.22,2.22.23l32.73.16c2.1-6.04-5.06-2.01-9.24-6.99-1.66-1.97-2.14-5.18-1.19-7.75l9.66-26.4,50.97.1,11.06,28.21c.54,2.57.28,5.11-1.53,6.87-4.1,3.98-10.64-.14-8.57,5.99l43.83-.07c.65,0,1.17-2.47.55-3.5ZM504.36,126.04l21.92-57.53,23.6,57.3-45.52.23Z"/>
        <path class="cls-1" d="M1128.28,164.93c-1.4-3.16-4.81,2.77-9.2.75-1.29-.59-3.11-2.48-3.12-4.84l-.34-48.44c-.07-9.87-6.08-18.12-15.47-21.07-12.97-4.08-27.43-2.69-38.46,5.08-5.96,4.2-9.34,11.63-5.83,17.97,1.47,2.66,5.61,2.22,7.91,1.28,6.37-2.61,4.52-10.96,8.2-15.51,3.91-4.83,10.03-6.24,16.29-4.53,10.11,2.77,12.16,15.69,10.43,27.19-18.89,5.75-44.95,9.09-48.49,28.49-1.91,10.48,3.57,20.21,14.4,23.07,13.1,3.47,25.12-1.31,34.7-11.62,1,7.73,5.87,12.64,13.19,12.41,8.68-.27,16.98-7.54,15.79-10.23ZM1083.03,165.85c-5.44.33-10.75-1.13-13.5-5.43-5.57-8.71-1.77-19.9,7.21-24.7l22.37-8.08.07,30.07c-4.73,4.28-9.5,7.18-16.14,8.14Z"/>
        <path class="cls-2" d="M732.93,163.83l-1.55.84c-2.17,1.17-4.42,1.62-6.47.67-1.66-.76-2.98-3.09-3-5.56l-.2-47.11c-.04-9.41-5.61-17.68-14.52-20.9-13.87-5-30.02-3.14-41.21,6.18-5.14,4.28-7.8,11.43-3.94,16.72,1.88,2.58,6.44,1.97,8.66.52,6.93-4.55,1.99-19.32,17.44-20.13,6.88-.36,13.25,2.92,15.66,9.81,1.9,5.44,2.01,11.8.9,17.57l-32.16,10.36c-8.58,3.71-15.79,9.93-16.8,19.93-1.05,10.46,4.69,18.82,14.18,21.52,13.15,3.74,25.47-1.17,35.55-11.22,1.34,8.91,7.63,13.17,15.45,11.97,5.55-.85,10.53-4.49,13.7-8.98.11-.96-1.24-2.44-1.69-2.2ZM705.33,157.68c-3.78,3.28-7.41,5.86-12.62,7.46-5.76,1.79-12.91,1.06-16.61-3.7-6.33-8.13-3.38-19.41,5.16-24.79,7.41-4.67,15.57-6.9,24.1-9.18l-.03,30.2Z"/>
        <path class="cls-1" d="M906.45,152.29c-.27-.79-1.96-2.52-2.9-1.12-6.27,9.37-16.34,13.76-27.29,12.49-17.35-2.02-26.55-19.53-25.76-36.99l55.36-.06c.49-11.75-2.28-23.1-11.48-30.23-17.32-13.42-43.18-7.78-53.94,11.26-7.99,14.13-9.02,30.76-2.8,45.41,5.69,13.4,17.34,21.34,31.59,22.47,15.62,1.24,29.38-5.92,36.31-20.03.59-1.2,1.39-1.84.91-3.21ZM856.63,101.89c6.39-8.14,17.83-9.76,25.61-3,5.2,5.7,7.37,12.67,6.63,21.54l-38.21.31c.18-7.14,2.03-13.47,5.97-18.85Z"/>
        <path class="cls-1" d="M1396.63,152.2c-2.71-4.63-6.28,11.28-25.25,11.69-19.6.42-30.59-17.44-29.96-37.11l55.24-.2c.59-12.15-2.57-24.05-12.42-31.02-18.01-12.75-43.36-6.11-53.53,13.47-7.16,13.78-8.14,29.93-2.21,44.11,5.63,13.45,17.56,21.4,31.75,22.4,26.15,1.85,38.15-20.35,36.39-23.34ZM1361.13,94.76c5.46-.3,10.8,2.02,14.37,6.66,3.36,5.47,4.98,11.35,4.49,19.04l-38.19.17c.3-13.28,7.11-25.2,19.33-25.87Z"/>
      </g>
      <g>
        <path class="cls-2" d="M1447.05,144.63c-.35-1.1-.82-2.09-1.41-2.97s-1.29-1.63-2.1-2.25c-.81-.62-1.74-1.1-2.77-1.43-1.04-.33-2.17-.49-3.41-.49-2.1,0-3.99.54-5.67,1.62-1.68,1.08-3.01,2.66-3.99,4.74-.98,2.08-1.46,4.62-1.46,7.63s.49,5.57,1.47,7.65c.98,2.09,2.33,3.67,4.04,4.75,1.71,1.08,3.65,1.62,5.84,1.62,2.02,0,3.79-.41,5.3-1.24,1.51-.82,2.68-1.99,3.51-3.5.83-1.51,1.25-3.29,1.25-5.34l1.45.27h-10.65v-4.64h14.63v4.24c0,3.13-.66,5.84-1.99,8.13-1.33,2.3-3.16,4.07-5.49,5.32-2.33,1.25-5,1.87-8.01,1.87-3.37,0-6.32-.78-8.86-2.33-2.54-1.55-4.52-3.75-5.94-6.61-1.42-2.85-2.13-6.24-2.13-10.17,0-2.97.41-5.64,1.24-8,.82-2.36,1.98-4.37,3.48-6.03,1.5-1.65,3.26-2.92,5.29-3.8,2.03-.88,4.25-1.32,6.66-1.32,2.01,0,3.89.3,5.63.89,1.74.59,3.29,1.44,4.65,2.53,1.36,1.09,2.49,2.38,3.39,3.88.9,1.5,1.5,3.15,1.82,4.97h-5.76Z"/>
        <path class="cls-2" d="M1460.19,132.87h6.82l11.85,28.94h.44l11.85-28.94h6.82v37.23h-5.34v-26.94h-.35l-10.98,26.89h-4.44l-10.98-26.9h-.35v26.96h-5.34v-37.23Z"/>
        <path class="cls-2" d="M1506.14,170.1v-37.23h13.63c2.64,0,4.83.43,6.56,1.3,1.73.87,3.03,2.04,3.89,3.51.86,1.47,1.29,3.13,1.29,4.97,0,1.55-.28,2.86-.85,3.92-.57,1.06-1.33,1.91-2.28,2.54-.95.64-2,1.1-3.14,1.39v.36c1.24.06,2.45.46,3.63,1.19,1.18.73,2.16,1.77,2.94,3.12.78,1.34,1.16,2.98,1.16,4.91s-.45,3.61-1.34,5.12c-.89,1.51-2.26,2.7-4.12,3.58-1.85.88-4.22,1.32-7.11,1.32h-14.27ZM1511.76,148.97h7.53c1.26,0,2.4-.24,3.41-.73,1.01-.49,1.82-1.17,2.42-2.05.6-.88.9-1.92.9-3.12,0-1.54-.54-2.83-1.62-3.87-1.08-1.04-2.73-1.56-4.96-1.56h-7.67v11.33ZM1511.76,165.28h8.11c2.69,0,4.62-.52,5.78-1.56,1.16-1.04,1.75-2.34,1.75-3.91,0-1.18-.3-2.25-.89-3.24-.59-.98-1.44-1.76-2.54-2.34-1.1-.58-2.4-.87-3.9-.87h-8.31v11.92Z"/>
        <path class="cls-2" d="M1539.63,170.1v-37.23h5.62v16.18h18.56v-16.18h5.64v37.23h-5.64v-16.23h-18.56v16.23h-5.62Z"/>
      </g>
    </g>
  </g>
</svg>