<?xml version="1.0" encoding="UTF-8"?>
<svg id="Layer_1" data-name="Layer 1" xmlns="http://www.w3.org/2000/svg" viewBox="0 0 311.81 311.81">
  <defs>
    <style>
      .cls-1 {
        fill: #c49634;
      }

      .cls-2 {
        fill: #fff;
      }
    </style>
  </defs>
  <path class="cls-2" d="M96.75,107.1l-27.48,67.48c-5.12,1.96-9.43,4.66-14.56,7.01l34.95-84.6,14.32-34.5c1.25-.29,2.32-.24,3.74-.1l50.6,125.12c-11.24-8.45-22.67-14.7-35.59-17.55l-25.97-62.86Z"/>
  <path class="cls-1" d="M227.09,98.63c-17.64-2.27-34.41,3.69-47.19,15.78-15.53,14.7-22.9,34.79-23.07,56.44l-6.48-15.72-9.41-23.81c14.15-23.53,36.36-38.9,63.2-42.04l5.61-.39c8.87-.42,11.07-.05,18.59.69l8.85,1.15c13.97,2.46,27.02,7.48,39.19,14.66l.3,9.64.18,24.45c-.66.59-2.22.51-2.92-.01-5.27-21.98-24.61-37.97-46.86-40.83Z"/>
  <path class="cls-1" d="M194.96,248.69c-.42-.77-1.59-.76-2.56-.98-18.94-4.45-31.36-15.25-44.01-29.17l-10.11-11.12-4.41-4.14c-10.58-9.92-23.7-15.67-38.54-16.65-11.62-.76-23.01,2.01-33.72,5.88l-5.8,2.1c-11.22,4.66-21.44,10.94-31.71,17.41-.94.59-.45.27-2.12,1.47l-12.7,7.32,5.49-4.87,13.83-11.04c10.83-8.65,22.27-16.04,34.77-22.09,16-7.74,31.33-11.45,49.12-9.67,23.26,2.33,42.75,14.76,56.92,32.96,5.73,7.36,11.64,14.12,19.1,19.75,19.32,14.59,42.33,18,63.58,4.38-7.71,12.84-21.67,17.95-36.1,19.23l-10.06.05c-.69,0-1.38-.02-2.07-.08l-8.89-.75Z"/>
  <path class="cls-1" d="M283.26,225.65c0,3.6-1.83,6.97-4.87,8.9-11.18,7.09-23.6,11.61-36.65,13.92-1.94.34-3.7.6-5.85.2,7.43-3.07,13.87-7.59,18.53-13.93,1.54-2.1,2.38-4.63,2.38-7.23l-.06-37.86c0-1.92-.56-3.95-1.05-5.7-2.47-8.78-14.57-9.24-23.14-9.52-.47-1.29-.53-2.66.05-3.83l66.03.05c1.03,0,.84,0,3.09.09,1.07.79,1,2.65.45,3.92-6.71-.23-16.16,1.35-18.24,7.8l-.69,5.48.05,37.73Z"/>
  <path class="cls-2" d="M61.6,192.52l-14.6,37.54c-1.66,4.19-.61,8.97,2.66,11.65,2.92,2.4,6.47,3.02,9.98,3.41l-.04,3.55-43.96.02c-.19-1.18-.13-2.18.05-3.56,10.84-1.68,15.39-9.24,19.38-18.91l10.46-25.36-10.76,5.23-9.49,5.42c-1.15.66-1.02.65-3.3,1.98,1.13-1.01,1.11-1.02,2.05-1.61,10.27-6.47,20.56-12.6,31.78-17.26l5.8-2.1Z"/>
  <path class="cls-2" d="M194.96,248.69l-28.05-.12c-8.96-.04-16.7-5.75-20.17-14l-12.87-31.29,4.41,4.14,10.11,11.12c12.64,13.92,25.07,24.72,44.01,29.17.97.23,2.14.21,2.56.98Z"/>
</svg>